<svg width="37" height="56" viewBox="0 0 37 56" fill="none" xmlns="http://www.w3.org/2000/svg">
<path d="M14.7474 1.38574C12.0986 4.63462 8.39031 11.5794 14.7474 13.3673C17.4582 12.7051 21.2534 9.38171 14.7474 1.38574Z" fill="white"/>
<path d="M28.1717 3.03329C23.8968 4.22442 16.4483 7.96398 20.8527 13.3931C23.6011 14.4765 28.9127 13.9212 28.1717 3.03329Z" fill="white"/>
<path d="M31.5105 14.528C27.3385 13.8964 19.414 14.194 21.0919 20.4379C23.0461 22.3978 27.8659 23.9596 31.5105 14.528Z" fill="white"/>
<path d="M14.7754 13.4291V9.14551" stroke="#444444" stroke-width="2.5"/>
<path d="M20.9136 13.4811L23.5303 9.77734" stroke="#444444" stroke-width="2.5"/>
<path d="M21.159 20.4307L24.8838 18.3179" stroke="#444444" stroke-width="2.5"/>
<circle cx="25.2042" cy="27.5216" r="4.03523" fill="white"/>
<path fill-rule="evenodd" clip-rule="evenodd" d="M18.2516 16.4712C16.3064 19.2441 13.3597 26.2799 17.1342 32.2396C16.2237 32.0534 14.2909 31.3457 13.8439 30.0047C13.7819 34.1434 13.8315 42.7685 14.5268 44.1591C11.0503 44.9041 3.27785 47.7722 0 53.285C1.94519 54.1955 8.90235 55.7433 21.1695 54.6507C20.1555 53.8023 17.5315 52.0558 15.1477 51.8571V52.7262C12.623 52.7883 7.31309 52.54 6.27013 51.05C8.8568 50.3051 14.6509 48.989 17.1342 49.6843C19.2242 50.5948 24.2487 52.5896 27.6258 53.285C28.6398 53.3263 31.9342 53.0987 37 51.8571C35.0755 48.7738 30.2208 42.0732 26.198 39.9376L26.8188 44.7178C28.557 45.7111 32.4805 48.2564 34.2685 50.4913C32.3233 50.7603 28.2715 51.137 27.6258 50.4913C27.0464 50.2637 25.8379 49.6346 25.6393 48.9393C25.5231 48.8993 25.3996 48.855 25.2701 48.8067C25.7336 48.2317 26.0111 47.5004 26.0111 46.7043C26.0111 44.8529 24.5102 43.352 22.6588 43.352C21.5018 43.352 20.4817 43.9381 19.8793 44.8295C19.8733 44.7924 19.8688 44.7551 19.8658 44.7178C21.2522 42.752 23.7396 38.0628 22.5973 35.0333C20.2589 32.5087 16.116 25.2618 18.2516 16.4712Z" fill="white"/>
</svg>
